<svg xmlns="http://www.w3.org/2000/svg" viewBox="0 0 108 108">
  <rect width="108" height="108" rx="24" fill="#1a0033"/>
  <svg x="14" y="14" width="80" height="80" xmlns="http://www.w3.org/2000/svg" viewBox="0 -960 960 960" fill="#B388FF">
    <path d="M120-120v-80h720v80H120Zm40-120v-80l320-280q20-18 44.5-27.5T574-637q25 0 49.5 9.5T668-600l40 36q20 18 29.5 42t9.5 50q0 26-9.5 50.5T708-380L388-100H160Zm60-60h105l245-215q14-14 14-34t-14-34l-19-17q-14-12-33.5-12.5T484-460L220-240v80Zm400-340-57-57 66-66q14-14 33.5-14t33.5 14l20 20q14 14 14 33.5T696-566l-66 66ZM220-240v-80l120-120q10-9 23.5-9t22.5 10q9 10 9 23t-9 22L280-260h-60Zm0-203v-28l216-214q7-7 17-7t17 7l10 10q7 7 7 17t-7 17L277-443h-57Zm0-95-57-57 136-136q14-14 33.5-14t33.5 14l60 60-57 57-37-36-112 112Z"/>
  </svg>
</svg>
